REM DIRINDEX 1\6,1\2\7,1\2\8,1\2\9,1\3\10,1\3\11,1\4\12,1\4\13,1\4\14,1\5\15,1\5\16,1\5\17
REM DIRNAME folder01,folder02,folder03,folder04,folder05,folder06,folder07,folder08,folder09,folder10,folder11,folder12,folder13,folder14,folder15,folder16,folder17
TITLE ""
FILE "3Q_t2_0392-0407.mp3" MP3
  TRACK 01 AUDIO
    TITLE "7:cjc041_4591"
    INDEX 01 00:00:00
  TRACK 02 AUDIO
    TITLE "0:"
    INDEX 01 00:01:03
  TRACK 03 AUDIO
    TITLE "8:cjc041_4592"
    INDEX 01 00:01:62
  TRACK 04 AUDIO
    TITLE "0:"
    INDEX 01 00:04:09
  TRACK 05 AUDIO
    TITLE "9:cjc041_4593"
    INDEX 01 00:04:62
  TRACK 06 AUDIO
    TITLE "0:"
    INDEX 01 00:06:04
  TRACK 07 AUDIO
    TITLE "7:cjc041_4594"
    INDEX 01 00:07:60
  TRACK 08 AUDIO
    TITLE "0:"
    INDEX 01 00:09:10
  TRACK 09 AUDIO
    TITLE "8:cjc041_4595"
    INDEX 01 00:09:67
  TRACK 10 AUDIO
    TITLE "0:"
    INDEX 01 00:12:24
  TRACK 11 AUDIO
    TITLE "9:cjc041_4596"
    INDEX 01 00:13:04
  TRACK 12 AUDIO
    TITLE "0:"
    INDEX 01 00:14:31
  TRACK 13 AUDIO
    TITLE "7:cjc041_4597"
    INDEX 01 00:16:14
  TRACK 14 AUDIO
    TITLE "0:"
    INDEX 01 00:17:18
  TRACK 15 AUDIO
    TITLE "8:cjc041_4598"
    INDEX 01 00:17:67
  TRACK 16 AUDIO
    TITLE "0:"
    INDEX 01 00:19:26
  TRACK 17 AUDIO
    TITLE "9:cjc041_4599"
    INDEX 01 00:20:02
  TRACK 18 AUDIO
    TITLE "0:"
    INDEX 01 00:21:09
  TRACK 19 AUDIO
    TITLE "7:cjc041_4600"
    INDEX 01 00:22:64
  TRACK 20 AUDIO
    TITLE "0:"
    INDEX 01 00:24:04
  TRACK 21 AUDIO
    TITLE "8:cjc041_4601"
    INDEX 01 00:24:55
  TRACK 22 AUDIO
    TITLE "0:"
    INDEX 01 00:25:46
  TRACK 23 AUDIO
    TITLE "9:cjc041_4602"
    INDEX 01 00:26:24
  TRACK 24 AUDIO
    TITLE "0:"
    INDEX 01 00:27:41
  TRACK 25 AUDIO
    TITLE "7:cjc041_4603"
    INDEX 01 00:29:15
  TRACK 26 AUDIO
    TITLE "0:"
    INDEX 01 00:30:30
  TRACK 27 AUDIO
    TITLE "8:cjc041_4604"
    INDEX 01 00:31:04
  TRACK 28 AUDIO
    TITLE "0:"
    INDEX 01 00:32:48
  TRACK 29 AUDIO
    TITLE "9:cjc041_4605"
    INDEX 01 00:33:24
  TRACK 30 AUDIO
    TITLE "0:"
    INDEX 01 00:34:42
  TRACK 31 AUDIO
    TITLE "7:cjc041_4606"
    INDEX 01 00:36:21
  TRACK 32 AUDIO
    TITLE "0:"
    INDEX 01 00:37:34
  TRACK 33 AUDIO
    TITLE "8:cjc041_4607"
    INDEX 01 00:38:16
  TRACK 34 AUDIO
    TITLE "0:"
    INDEX 01 00:39:19
  TRACK 35 AUDIO
    TITLE "9:cjc041_4608"
    INDEX 01 00:39:72
  TRACK 36 AUDIO
    TITLE "0:"
    INDEX 01 00:41:12
  TRACK 37 AUDIO
    TITLE "7:cjc041_4609"
    INDEX 01 00:42:72
  TRACK 38 AUDIO
    TITLE "0:"
    INDEX 01 00:44:01
  TRACK 39 AUDIO
    TITLE "8:cjc041_4610"
    INDEX 01 00:44:58
  TRACK 40 AUDIO
    TITLE "0:"
    INDEX 01 00:45:73
  TRACK 41 AUDIO
    TITLE "9:cjc041_4611"
    INDEX 01 00:46:51
  TRACK 42 AUDIO
    TITLE "0:"
    INDEX 01 00:47:58
  TRACK 43 AUDIO
    TITLE "7:cjc041_4612"
    INDEX 01 00:49:33
  TRACK 44 AUDIO
    TITLE "0:"
    INDEX 01 00:50:58
  TRACK 45 AUDIO
    TITLE "8:cjc041_4613"
    INDEX 01 00:51:36
  TRACK 46 AUDIO
    TITLE "0:"
    INDEX 01 00:52:51
  TRACK 47 AUDIO
    TITLE "9:cjc041_4614"
    INDEX 01 00:53:27
  TRACK 48 AUDIO
    TITLE "0:"
    INDEX 01 00:54:54
  TRACK 49 AUDIO
    TITLE "7:cjc041_4615"
    INDEX 01 00:56:37
  TRACK 50 AUDIO
    TITLE "0:"
    INDEX 01 00:57:54
  TRACK 51 AUDIO
    TITLE "8:cjc041_4616"
    INDEX 01 00:58:36
  TRACK 52 AUDIO
    TITLE "0:"
    INDEX 01 01:00:60
  TRACK 53 AUDIO
    TITLE "9:cjc041_4617"
    INDEX 01 01:01:40
  TRACK 54 AUDIO
    TITLE "0:"
    INDEX 01 01:02:59
  TRACK 55 AUDIO
    TITLE "7:cjc041_4618"
    INDEX 01 01:04:37
  TRACK 56 AUDIO
    TITLE "0:"
    INDEX 01 01:06:04
  TRACK 57 AUDIO
    TITLE "8:cjc041_4619"
    INDEX 01 01:06:57
  TRACK 58 AUDIO
    TITLE "0:"
    INDEX 01 01:09:03
  TRACK 59 AUDIO
    TITLE "9:cjc041_4620"
    INDEX 01 01:09:56
  TRACK 60 AUDIO
    TITLE "0:"
    INDEX 01 01:11:19
  TRACK 61 AUDIO
    TITLE "7:cjc041_4621"
    INDEX 01 01:13:00
  TRACK 62 AUDIO
    TITLE "0:"
    INDEX 01 01:14:33
  TRACK 63 AUDIO
    TITLE "8:cjc041_4622"
    INDEX 01 01:15:13
  TRACK 64 AUDIO
    TITLE "0:"
    INDEX 01 01:16:58
  TRACK 65 AUDIO
    TITLE "9:cjc041_4623"
    INDEX 01 01:17:35
  TRACK 66 AUDIO
    TITLE "0:"
    INDEX 01 01:18:70
  TRACK 67 AUDIO
    TITLE "7:cjc041_4624"
    INDEX 01 01:20:51
  TRACK 68 AUDIO
    TITLE "0:"
    INDEX 01 01:21:63
  TRACK 69 AUDIO
    TITLE "8:cjc041_4625"
    INDEX 01 01:22:42
  TRACK 70 AUDIO
    TITLE "0:"
    INDEX 01 01:25:15
  TRACK 71 AUDIO
    TITLE "9:cjc041_4626"
    INDEX 01 01:25:68
  TRACK 72 AUDIO
    TITLE "0:"
    INDEX 01 01:27:10
  TRACK 73 AUDIO
    TITLE "7:cjc041_4627"
    INDEX 01 01:28:69
  TRACK 74 AUDIO
    TITLE "0:"
    INDEX 01 01:30:18
  TRACK 75 AUDIO
    TITLE "8:cjc041_4628"
    INDEX 01 01:30:67
  TRACK 76 AUDIO
    TITLE "0:"
    INDEX 01 01:32:04
  TRACK 77 AUDIO
    TITLE "9:cjc041_4629"
    INDEX 01 01:32:62
  TRACK 78 AUDIO
    TITLE "0:"
    INDEX 01 01:34:14
  TRACK 79 AUDIO
    TITLE "7:cjc041_4630"
    INDEX 01 01:35:67
  TRACK 80 AUDIO
    TITLE "0:"
    INDEX 01 01:37:07
  TRACK 81 AUDIO
    TITLE "8:cjc041_4631"
    INDEX 01 01:37:60
  TRACK 82 AUDIO
    TITLE "0:"
    INDEX 01 01:38:63
  TRACK 83 AUDIO
    TITLE "9:cjc041_4632"
    INDEX 01 01:39:37
  TRACK 84 AUDIO
    TITLE "0:"
    INDEX 01 01:40:58
  TRACK 85 AUDIO
    TITLE "7:cjc041_4633"
    INDEX 01 01:42:39
  TRACK 86 AUDIO
    TITLE "0:"
    INDEX 01 01:43:72
  TRACK 87 AUDIO
    TITLE "8:cjc041_4634"
    INDEX 01 01:44:46
  TRACK 88 AUDIO
    TITLE "0:"
    INDEX 01 01:47:33
  TRACK 89 AUDIO
    TITLE "9:cjc041_4635"
    INDEX 01 01:48:07
  TRACK 90 AUDIO
    TITLE "0:"
    INDEX 01 01:49:47
  TRACK 91 AUDIO
    TITLE "7:cjc041_4636"
    INDEX 01 01:51:27
  TRACK 92 AUDIO
    TITLE "0:"
    INDEX 01 01:52:34
  TRACK 93 AUDIO
    TITLE "8:cjc041_4637"
    INDEX 01 01:53:14
  TRACK 94 AUDIO
    TITLE "0:"
    INDEX 01 01:54:07
  TRACK 95 AUDIO
    TITLE "9:cjc041_4638"
    INDEX 01 01:54:60
  TRACK 96 AUDIO
    TITLE "0:"
    INDEX 01 01:55:69
